<svg viewBox="0 0 1100 900" fill="none" xmlns="http://www.w3.org/2000/svg">
<g clip-path="url(#clip0)">
<rect width="1100" height="900" fill="white"/>
<path d="M1100.41 23.5V902.5H501.483C501.483 902.5 518.606 664 769.755 512.5C1020.9 361 1055.19 109.368 1100.41 23.5Z" fill="#95FD24"/>
<path d="M252.962 755.694C254.61 845.435 202.14 877.75 136.712 878.965C135.193 878.993 133.68 879.005 132.174 878.998C129.141 878.989 126.137 878.906 123.164 878.749C64.0363 875.64 17.5494 843.553 16.0173 760.094C14.4318 673.724 122.185 562.689 130.268 554.477C130.276 554.477 130.276 554.477 130.283 554.469C130.59 554.157 130.747 554 130.747 554C130.747 554 251.315 665.96 252.962 755.694Z" fill="#95FD24"/>
<path d="M132.408 865.32L174.594 803.623L132.421 872.006L132.433 879C129.402 878.991 126.401 878.907 123.429 878.75L126.448 788.883L126.399 788.189L126.476 788.056L126.764 779.564L82 712.627L126.778 773.206L126.92 775.003L129.2 707.105L90.6588 637.792L129.439 695.175L130.529 554.468L130.535 554L130.543 554.461L131.968 665.381L168.244 620.724L131.983 674.936L132.116 735.693L165.688 676.76L132.142 744.625L132.216 778.409L181 696.339L132.236 790.195L132.408 865.32Z" fill="#3F3D56"/>
<path d="M467.967 769.317C469.406 851.327 423.578 880.858 366.432 881.968C365.105 881.994 363.784 882.004 362.468 881.998C359.819 881.99 357.196 881.914 354.599 881.77C302.956 878.93 262.353 849.607 261.015 773.338C259.63 694.409 353.744 592.941 360.804 585.436C360.81 585.436 360.81 585.436 360.817 585.429C361.085 585.143 361.222 585 361.222 585C361.222 585 466.528 687.314 467.967 769.317Z" fill="#95FD24"/>
<path d="M363.789 866.498L400.435 810.117L363.8 872.609L363.811 879C361.177 878.991 358.57 878.915 355.989 878.772L358.611 796.647L358.569 796.013L358.636 795.891L358.886 788.131L320 726.961L358.898 782.321L359.021 783.963L361.002 721.914L327.522 658.573L361.21 711.013L362.157 582.428L362.162 582L362.169 582.421L363.406 683.785L394.919 642.975L363.419 692.517L363.535 748.039L392.699 694.184L363.558 756.202L363.622 787.075L406 712.076L363.64 797.846L363.789 866.498Z" fill="#3F3D56"/>
<path d="M502.677 900.96L2.47885 899.153L46.6741 883.274C45.4419 810.648 55.6404 775.434 71.33 724.734C66.3274 780.579 62.5615 814.502 60.6578 861.918C70.2306 849.783 77.97 827.231 98.7403 808.706C85.8208 825.864 79.0854 850.586 68.3547 880.476L193.133 869.998L192.233 833.66C195.819 846.493 198.51 854.422 204.384 869.719C206.227 843.589 210.926 829.944 219.684 805.709C218.806 828.032 218.553 840.025 214.429 869.47C220.765 853.282 223.506 848.723 227.859 843.571C225.754 853.072 224.696 858.258 221.26 869.301L380.367 881.266L374.066 854.151L388.001 881.076C395.213 848.566 397.567 828.699 409.738 800.999C407.251 836.122 405.388 852.151 402.065 880.728L421.078 852.986L415.395 883.238L502.677 900.96Z" fill="#3F3D56"/>
</g>
<defs>
<clipPath id="clip0">
<rect width="1100" height="900" fill="white"/>
</clipPath>
</defs>
</svg>
