<svg width="670" height="684" viewBox="0 0 670 684" fill="none" xmlns="http://www.w3.org/2000/svg">
<rect x="168" width="315" height="684" rx="50" fill="white"/>
<rect x="161" y="236" width="7" height="53" fill="#424242"/>
<rect x="161" y="113" width="7" height="93" fill="#424242"/>
<rect x="168" width="315" height="684" rx="50" fill="#424242"/>
<ellipse cx="376" cy="19" rx="6" ry="5" fill="white"/>
<rect x="296" y="15" width="60" height="8" rx="4" fill="white"/>
<rect x="168" y="37" width="315" height="617" rx="50" fill="#95FD24"/>
<g filter="url(#filter0_b)">
<path d="M287.009 382.952C288.676 382.939 290.036 384.278 290.04 385.937L290.17 439.238C290.176 441.9 286.95 443.245 285.048 441.374L231.294 388.491C229.391 386.619 230.709 383.391 233.386 383.37L287.009 382.952Z" fill="white"/>
<path d="M287.009 382.952C288.676 382.939 290.036 384.278 290.04 385.937L290.17 439.238C290.176 441.9 286.95 443.245 285.048 441.374L231.294 388.491C229.391 386.619 230.709 383.391 233.386 383.37L287.009 382.952Z" fill="url(#paint0_linear)"/>
<path d="M287.006 382.453L287.009 382.952L287.006 382.453L233.382 382.871C230.26 382.895 228.722 386.661 230.942 388.846L284.696 441.729C286.915 443.912 290.678 442.342 290.671 439.237L290.541 385.936C290.536 384 288.95 382.438 287.006 382.453Z" stroke="black"/>
</g>
<rect x="0.5" y="306.5" width="309.427" height="81.6977" rx="19.5" fill="white" stroke="black"/>
<ellipse cx="30.1804" cy="317.703" rx="8.23101" ry="7.80167" fill="#95FD24"/>
<rect x="21.9493" y="359.832" width="265.744" height="11.7025" rx="5" fill="#C4C4C4"/>
<mask id="path-13-inside-1" fill="white">
<path d="M231.503 387.917V388.698H290.045V387.917H231.503Z"/>
</mask>
<path d="M231.503 388.698H230.503V389.698H231.503V388.698ZM231.503 387.917V386.917H230.503V387.917H231.503ZM290.045 387.917H291.045V386.917H290.045V387.917ZM290.045 388.698V389.698H291.045V388.698H290.045ZM232.503 388.698V387.917H230.503V388.698H232.503ZM231.503 388.917H290.045V386.917H231.503V388.917ZM289.045 387.917V388.698H291.045V387.917H289.045ZM290.045 387.698H231.503V389.698H290.045V387.698Z" fill="white" mask="url(#path-13-inside-1)"/>
<rect x="21.9493" y="341.108" width="201.464" height="11.7025" rx="5" fill="#C4C4C4"/>
<g filter="url(#filter1_b)">
<path d="M380.829 513.371C380.831 511.735 382.209 510.413 383.9 510.424L439.003 510.786C441.714 510.804 443.054 513.98 441.129 515.828L385.95 568.833C384.024 570.683 380.748 569.362 380.752 566.737L380.829 513.371Z" fill="white"/>
<path d="M380.829 513.371C380.831 511.735 382.209 510.413 383.9 510.424L439.003 510.786C441.714 510.804 443.054 513.98 441.129 515.828L385.95 568.833C384.024 570.683 380.748 569.362 380.752 566.737L380.829 513.371Z" fill="url(#paint1_linear)"/>
<path d="M383.904 509.932C381.931 509.919 380.323 511.462 380.321 513.37L380.244 566.737C380.239 569.799 384.061 571.34 386.308 569.182L441.487 516.177C443.733 514.02 442.17 510.315 439.006 510.295L383.904 509.932Z" stroke="black"/>
</g>
<rect x="351.849" y="434.5" width="317.651" height="81.5009" rx="19.5" fill="white" stroke="black"/>
<ellipse cx="382.329" cy="445.675" rx="8.44908" ry="7.7831" fill="#95FD24"/>
<rect x="373.88" y="487.703" width="272.785" height="11.6746" rx="5" fill="#C4C4C4"/>
<rect x="373.88" y="469.024" width="206.801" height="11.6746" rx="5" fill="#C4C4C4"/>
<g filter="url(#filter2_b)">
<path d="M354.829 202.371C354.831 200.735 356.209 199.413 357.9 199.424L413.003 199.786C415.714 199.804 417.054 202.98 415.129 204.828L359.95 257.833C358.024 259.683 354.748 258.362 354.752 255.737L354.829 202.371Z" fill="white"/>
<path d="M354.829 202.371C354.831 200.735 356.209 199.413 357.9 199.424L413.003 199.786C415.714 199.804 417.054 202.98 415.129 204.828L359.95 257.833C358.024 259.683 354.748 258.362 354.752 255.737L354.829 202.371Z" fill="url(#paint2_linear)"/>
<path d="M357.904 198.932C355.931 198.919 354.323 200.462 354.321 202.37L354.244 255.737C354.239 258.799 358.061 260.34 360.308 258.182L415.487 205.177C417.733 203.02 416.17 199.315 413.006 199.295L357.904 198.932Z" stroke="black"/>
</g>
<rect x="325.849" y="123.5" width="317.651" height="81.5009" rx="19.5" fill="white" stroke="black"/>
<ellipse cx="356.329" cy="134.675" rx="8.44908" ry="7.7831" fill="#95FD24"/>
<rect x="347.88" y="176.703" width="272.785" height="11.6746" rx="5" fill="#C4C4C4"/>
<rect x="347.88" y="158.024" width="206.801" height="11.6746" rx="5" fill="#C4C4C4"/>
<defs>
<filter id="filter0_b" x="225.391" y="377.954" width="69.7806" height="69.2899" filterUnits="userSpaceOnUse" color-interpolation-filters="sRGB">
<feFlood flood-opacity="0" result="BackgroundImageFix"/>
<feGaussianBlur in="BackgroundImage" stdDeviation="2"/>
<feComposite in2="SourceAlpha" operator="in" result="effect1_backgroundBlur"/>
<feBlend mode="normal" in="SourceGraphic" in2="effect1_backgroundBlur" result="shape"/>
</filter>
<filter id="filter1_b" x="375.735" y="505.441" width="71.3194" height="69.2404" filterUnits="userSpaceOnUse" color-interpolation-filters="sRGB">
<feFlood flood-opacity="0" result="BackgroundImageFix"/>
<feGaussianBlur in="BackgroundImage" stdDeviation="2"/>
<feComposite in2="SourceAlpha" operator="in" result="effect1_backgroundBlur"/>
<feBlend mode="normal" in="SourceGraphic" in2="effect1_backgroundBlur" result="shape"/>
</filter>
<filter id="filter2_b" x="349.735" y="194.441" width="71.3194" height="69.2404" filterUnits="userSpaceOnUse" color-interpolation-filters="sRGB">
<feFlood flood-opacity="0" result="BackgroundImageFix"/>
<feGaussianBlur in="BackgroundImage" stdDeviation="2"/>
<feComposite in2="SourceAlpha" operator="in" result="effect1_backgroundBlur"/>
<feBlend mode="normal" in="SourceGraphic" in2="effect1_backgroundBlur" result="shape"/>
</filter>
<linearGradient id="paint0_linear" x1="290.032" y1="382.928" x2="248.613" y2="425.836" gradientUnits="userSpaceOnUse">
<stop stop-color="white"/>
<stop offset="1" stop-color="white" stop-opacity="0"/>
</linearGradient>
<linearGradient id="paint1_linear" x1="380.833" y1="510.404" x2="423.052" y2="553.529" gradientUnits="userSpaceOnUse">
<stop stop-color="white"/>
<stop offset="1" stop-color="white" stop-opacity="0"/>
</linearGradient>
<linearGradient id="paint2_linear" x1="354.833" y1="199.404" x2="397.052" y2="242.529" gradientUnits="userSpaceOnUse">
<stop stop-color="white"/>
<stop offset="1" stop-color="white" stop-opacity="0"/>
</linearGradient>
</defs>
</svg>
