<svg width="322" height="684" viewBox="0 0 322 684" fill="none" xmlns="http://www.w3.org/2000/svg">
<rect x="7" width="315" height="684" rx="50" fill="white"/>
<rect y="236" width="7" height="53" fill="#424242"/>
<rect y="113" width="7" height="93" fill="#424242"/>
<rect x="7" width="315" height="684" rx="50" fill="#424242"/>
<ellipse cx="215" cy="19" rx="6" ry="5" fill="white"/>
<rect x="135" y="15" width="60" height="8" rx="4" fill="white"/>
<rect x="7" y="37" width="315" height="617" rx="50" fill="#00BFA6"/>
<path fill-rule="evenodd" clip-rule="evenodd" d="M76.7481 345.5C76.7481 327.328 82.081 309.563 92.0723 294.454C102.064 279.344 116.265 267.567 132.88 260.613C149.495 253.659 167.777 251.839 185.416 255.385C203.054 258.93 219.256 267.681 231.973 280.53C244.689 293.38 253.349 309.752 256.858 327.575C260.366 345.398 258.566 363.872 251.684 380.661C244.801 397.45 233.147 411.8 218.194 421.896C203.241 431.992 185.661 437.381 167.677 437.381C150.473 437.412 133.618 432.485 119.089 423.177C117.796 422.351 116.344 421.814 114.829 421.604C113.313 421.393 111.771 421.513 110.306 421.956L79.4974 431.241L91.1041 403.817C91.7788 402.221 92.0629 400.483 91.9326 398.752C91.8023 397.021 91.2612 395.348 90.3553 393.873C81.4329 379.351 76.7187 362.593 76.7481 345.5V345.5ZM167.677 232C105.642 232 55.3532 282.816 55.3532 345.5C55.3532 365.368 60.4131 384.068 69.3134 400.337L50.8603 443.942C50.0616 445.831 49.8121 447.911 50.1409 449.938C50.4698 451.965 51.3634 453.855 52.7171 455.388C54.0708 456.92 55.8286 458.031 57.7846 458.59C59.7406 459.15 61.8138 459.134 63.7614 458.546L111.9 444.039C128.877 453.87 148.109 459.029 167.677 459C229.711 459 280 408.184 280 345.5C280 282.816 229.711 232 167.677 232ZM192.206 369.086L178.139 379.096C170.388 374.59 163.271 369.053 156.979 362.633C150.224 355.816 144.383 348.134 139.606 339.782L148.539 332.118C150.4 330.522 151.665 328.331 152.125 325.909C152.584 323.486 152.209 320.978 151.063 318.8L139.681 297.181C138.924 295.746 137.855 294.501 136.556 293.541C135.256 292.58 133.758 291.929 132.175 291.635C130.591 291.341 128.962 291.412 127.41 291.842C125.857 292.273 124.42 293.052 123.207 294.122L119.827 297.095C111.707 304.251 106.904 316.012 110.884 327.924C117.286 346.766 127.881 363.873 141.853 377.928C161.247 397.526 180.952 405.244 192.484 408.249C201.769 410.66 210.552 407.428 216.746 402.326L223.068 397.115C224.401 396.017 225.452 394.61 226.133 393.014C226.813 391.418 227.102 389.68 226.976 387.946C226.85 386.213 226.313 384.536 225.409 383.058C224.505 381.579 223.262 380.342 221.784 379.453L203.834 368.643C202.059 367.573 200.015 367.045 197.95 367.124C195.884 367.202 193.885 367.884 192.195 369.086H192.206Z" fill="black"/>
</svg>
