<svg width="322" height="684" viewBox="0 0 322 684" fill="none" xmlns="http://www.w3.org/2000/svg">
<rect x="7" width="315" height="684" rx="50" fill="white"/>
<rect y="236" width="7" height="53" fill="#424242"/>
<rect y="113" width="7" height="93" fill="#424242"/>
<rect x="7" width="315" height="684" rx="50" fill="#424242"/>
<ellipse cx="215" cy="19" rx="6" ry="5" fill="white"/>
<rect x="135" y="15" width="60" height="8" rx="4" fill="white"/>
<rect x="7" y="37" width="315" height="617" rx="50" fill="#95FD24"/>
<path d="M45.3984 344.867H72.3516V351H37.8594V294.125H45.3984V344.867ZM87.625 351H80.3984V308.734H87.625V351ZM79.8125 297.523C79.8125 296.352 80.1641 295.362 80.8672 294.555C81.5964 293.747 82.6641 293.344 84.0703 293.344C85.4766 293.344 86.5443 293.747 87.2734 294.555C88.0026 295.362 88.3672 296.352 88.3672 297.523C88.3672 298.695 88.0026 299.672 87.2734 300.453C86.5443 301.234 85.4766 301.625 84.0703 301.625C82.6641 301.625 81.5964 301.234 80.8672 300.453C80.1641 299.672 79.8125 298.695 79.8125 297.523ZM106.023 308.734L106.219 313.422C109.318 309.776 113.497 307.953 118.758 307.953C124.669 307.953 128.693 310.219 130.828 314.75C132.234 312.719 134.057 311.078 136.297 309.828C138.562 308.578 141.232 307.953 144.305 307.953C153.576 307.953 158.289 312.862 158.445 322.68V351H151.219V323.109C151.219 320.089 150.529 317.836 149.148 316.352C147.768 314.841 145.451 314.086 142.195 314.086C139.513 314.086 137.286 314.893 135.516 316.508C133.745 318.096 132.716 320.245 132.43 322.953V351H125.164V323.305C125.164 317.159 122.156 314.086 116.141 314.086C111.401 314.086 108.159 316.104 106.414 320.141V351H99.1875V308.734H106.023ZM205.086 330.336C205.086 336.768 203.615 341.951 200.672 345.883C197.729 349.815 193.745 351.781 188.719 351.781C183.589 351.781 179.552 350.154 176.609 346.898V367.25H169.383V308.734H175.984L176.336 313.422C179.279 309.776 183.367 307.953 188.602 307.953C193.68 307.953 197.69 309.867 200.633 313.695C203.602 317.523 205.086 322.849 205.086 329.672V330.336ZM197.859 329.516C197.859 324.75 196.844 320.987 194.812 318.227C192.781 315.466 189.995 314.086 186.453 314.086C182.078 314.086 178.797 316.026 176.609 319.906V340.102C178.771 343.956 182.078 345.883 186.531 345.883C189.995 345.883 192.742 344.516 194.773 341.781C196.831 339.021 197.859 334.932 197.859 329.516ZM240.398 351C239.982 350.167 239.643 348.682 239.383 346.547C236.023 350.036 232.013 351.781 227.352 351.781C223.185 351.781 219.76 350.609 217.078 348.266C214.422 345.896 213.094 342.901 213.094 339.281C213.094 334.88 214.76 331.469 218.094 329.047C221.453 326.599 226.167 325.375 232.234 325.375H239.266V322.055C239.266 319.529 238.51 317.523 237 316.039C235.49 314.529 233.263 313.773 230.32 313.773C227.742 313.773 225.581 314.424 223.836 315.727C222.091 317.029 221.219 318.604 221.219 320.453H213.953C213.953 318.344 214.695 316.312 216.18 314.359C217.69 312.38 219.721 310.818 222.273 309.672C224.852 308.526 227.677 307.953 230.75 307.953C235.62 307.953 239.435 309.177 242.195 311.625C244.956 314.047 246.388 317.393 246.492 321.664V341.117C246.492 344.997 246.987 348.083 247.977 350.375V351H240.398ZM228.406 345.492C230.672 345.492 232.82 344.906 234.852 343.734C236.883 342.562 238.354 341.039 239.266 339.164V330.492H233.602C224.747 330.492 220.32 333.083 220.32 338.266C220.32 340.531 221.076 342.302 222.586 343.578C224.096 344.854 226.036 345.492 228.406 345.492ZM278.523 320.492H294.383V327.328H278.523V345.297H271.258V327.328H255.398V320.492H271.258V303.891H278.523V320.492Z" fill="black"/>
<rect x="96" y="477" width="134.617" height="50.6444" rx="10" fill="white"/>
<path d="M137.615 505.018C136.007 504.555 134.835 503.989 134.099 503.318C133.37 502.641 133.006 501.808 133.006 500.818C133.006 499.699 133.452 498.774 134.344 498.045C135.242 497.309 136.407 496.942 137.84 496.942C138.816 496.942 139.685 497.13 140.447 497.508C141.215 497.886 141.808 498.406 142.224 499.07C142.648 499.734 142.859 500.46 142.859 501.248H140.974C140.974 500.389 140.701 499.715 140.154 499.227C139.607 498.732 138.836 498.484 137.84 498.484C136.915 498.484 136.193 498.69 135.672 499.1C135.157 499.503 134.9 500.067 134.9 500.789C134.9 501.369 135.144 501.86 135.633 502.264C136.127 502.661 136.964 503.026 138.142 503.358C139.327 503.69 140.252 504.057 140.916 504.461C141.586 504.858 142.081 505.324 142.4 505.858C142.726 506.391 142.889 507.02 142.889 507.742C142.889 508.895 142.439 509.819 141.541 510.516C140.642 511.206 139.441 511.551 137.937 511.551C136.961 511.551 136.049 511.365 135.203 510.994C134.357 510.617 133.702 510.102 133.24 509.451C132.784 508.8 132.556 508.061 132.556 507.234H134.441C134.441 508.094 134.757 508.774 135.389 509.276C136.027 509.77 136.876 510.018 137.937 510.018C138.927 510.018 139.685 509.816 140.213 509.412C140.74 509.009 141.004 508.458 141.004 507.762C141.004 507.065 140.76 506.528 140.271 506.151C139.783 505.766 138.898 505.389 137.615 505.018ZM146.98 511.356H145.174V500.789H146.98V511.356ZM145.027 497.986C145.027 497.693 145.115 497.446 145.291 497.244C145.473 497.042 145.74 496.942 146.092 496.942C146.443 496.942 146.71 497.042 146.892 497.244C147.075 497.446 147.166 497.693 147.166 497.986C147.166 498.279 147.075 498.524 146.892 498.719C146.71 498.914 146.443 499.012 146.092 499.012C145.74 499.012 145.473 498.914 145.291 498.719C145.115 498.524 145.027 498.279 145.027 497.986ZM151.58 500.789L151.629 501.961C152.404 501.05 153.448 500.594 154.764 500.594C156.241 500.594 157.247 501.16 157.781 502.293C158.133 501.785 158.588 501.375 159.148 501.063C159.715 500.75 160.382 500.594 161.15 500.594C163.468 500.594 164.646 501.821 164.685 504.276V511.356H162.879V504.383C162.879 503.628 162.706 503.065 162.361 502.693C162.016 502.316 161.437 502.127 160.623 502.127C159.952 502.127 159.396 502.329 158.953 502.733C158.51 503.13 158.253 503.667 158.181 504.344V511.356H156.365V504.432C156.365 502.895 155.613 502.127 154.109 502.127C152.924 502.127 152.114 502.632 151.678 503.641V511.356H149.871V500.789H151.58ZM173.943 510.311C173.24 511.137 172.208 511.551 170.848 511.551C169.721 511.551 168.862 511.225 168.269 510.574C167.683 509.917 167.387 508.947 167.381 507.664V500.789H169.187V507.615C169.187 509.217 169.838 510.018 171.14 510.018C172.521 510.018 173.439 509.503 173.894 508.475V500.789H175.701V511.356H173.982L173.943 510.311ZM180.418 511.356H178.611V496.356H180.418V511.356ZM189.842 511.356C189.737 511.147 189.653 510.776 189.588 510.242C188.748 511.115 187.745 511.551 186.58 511.551C185.538 511.551 184.682 511.258 184.012 510.672C183.348 510.08 183.015 509.331 183.015 508.426C183.015 507.326 183.432 506.473 184.265 505.867C185.105 505.255 186.284 504.949 187.801 504.949H189.558V504.119C189.558 503.488 189.37 502.986 188.992 502.615C188.614 502.238 188.058 502.049 187.322 502.049C186.678 502.049 186.137 502.212 185.701 502.537C185.265 502.863 185.047 503.257 185.047 503.719H183.23C183.23 503.192 183.416 502.684 183.787 502.195C184.165 501.701 184.672 501.31 185.31 501.024C185.955 500.737 186.661 500.594 187.43 500.594C188.647 500.594 189.601 500.9 190.291 501.512C190.981 502.117 191.339 502.954 191.365 504.022V508.885C191.365 509.855 191.489 510.626 191.736 511.199V511.356H189.842ZM186.844 509.979C187.41 509.979 187.947 509.832 188.455 509.539C188.963 509.246 189.331 508.865 189.558 508.397V506.229H188.142C185.929 506.229 184.822 506.876 184.822 508.172C184.822 508.738 185.011 509.181 185.389 509.5C185.766 509.819 186.251 509.979 186.844 509.979ZM199.305 502.41C199.031 502.365 198.735 502.342 198.416 502.342C197.231 502.342 196.427 502.846 196.004 503.856V511.356H194.197V500.789H195.955L195.984 502.01C196.577 501.066 197.417 500.594 198.504 500.594C198.855 500.594 199.122 500.639 199.305 500.731V502.41Z" fill="black"/>
</svg>
